<svg xmlns="http://www.w3.org/2000/svg" xmlns:xlink="http://www.w3.org/1999/xlink" viewBox="0 0 64 64"><defs><style>.cls-1{fill:url(#linear-gradient);}.cls-2{fill:#d7e9f7;}.cls-3{fill:#8ad3fe;}.cls-4{fill:url(#linear-gradient-2);}.cls-5{fill:url(#linear-gradient-3);}.cls-6{fill:url(#linear-gradient-4);}</style><linearGradient id="linear-gradient" x1="12" y1="54" x2="12" y2="10" gradientUnits="userSpaceOnUse"><stop offset="0" stop-color="#54a5ff"/><stop offset="1" stop-color="#8ad3fe"/></linearGradient><linearGradient id="linear-gradient-2" x1="32" y1="32" x2="32" y2="26" xlink:href="#linear-gradient"/><linearGradient id="linear-gradient-3" x1="43" y1="26" x2="43" y2="20" xlink:href="#linear-gradient"/><linearGradient id="linear-gradient-4" x1="52" y1="51" x2="52" y2="45" xlink:href="#linear-gradient"/></defs><title>Music</title><g id="Music"><path class="cls-1" d="M10.58,54C7.07,54,6,49.5,8,49.5a1,1,0,0,1,1,1c0,2,3,2,3,.08V47C1.3,46.84-1.81,32.29,7.61,27.58A38.11,38.11,0,0,0,12,25.26V14a4,4,0,0,1,8,0,15.49,15.49,0,0,1-6,12.29V31a7.33,7.33,0,0,1,8,7.26A8.71,8.71,0,0,1,14,47v3.61A3.42,3.42,0,0,1,10.58,54ZM12,27.6c-2.85,1.59-8,2.84-8,9.25A8.16,8.16,0,0,0,12,45V33.66A5.67,5.67,0,0,0,9,39a1,1,0,0,1-2,0,7.67,7.67,0,0,1,5-7.53ZM14,33V45a6.7,6.7,0,0,0,6-6.67A5.33,5.33,0,0,0,14,33Zm2-21a2,2,0,0,0-2,2v9.63A13.48,13.48,0,0,0,18,14,2,2,0,0,0,16,12Z"/><path class="cls-2" d="M61,21H25a1,1,0,0,0,0,2H61A1,1,0,0,0,61,21Z"/><path class="cls-2" d="M61,29H25a1,1,0,0,0,0,2H61A1,1,0,0,0,61,29Z"/><path class="cls-2" d="M61,39H25a1,1,0,0,1,0-2H61A1,1,0,0,1,61,39Z"/><path class="cls-2" d="M61,45H25a1,1,0,0,0,0,2H61A1,1,0,0,0,61,45Z"/><path class="cls-3" d="M33,29V17c0-.84-.16-.5,11.52-6.88A1,1,0,0,1,46,11V23a1,1,0,0,1-2,0V12.68l-9,4.91V29A1,1,0,0,1,33,29Z"/><path class="cls-3" d="M53,48V36c0-.76.09-.62,5.49-3.86a1,1,0,0,1,1,1.72L55,36.57V48A1,1,0,0,1,53,48Z"/><circle class="cls-4" cx="32" cy="29" r="3"/><circle class="cls-5" cx="43" cy="23" r="3"/><circle class="cls-6" cx="52" cy="48" r="3"/></g></svg>